REM DIRINDEX 1\2,1\3,1\4
REM DIRNAME cjc151,folder01,folder02,folder03
TITLE ""
FILE "081 081_TOEFL_3900.mp3" MP3
  TRACK 01 AUDIO
    TITLE "2:cjc151_3515"
    INDEX 01 00:00:00
  TRACK 02 AUDIO
    TITLE "0:"
    INDEX 01 00:01:21
  TRACK 03 AUDIO
    TITLE "3:cjc151_3516"
    INDEX 01 00:03:00
  TRACK 04 AUDIO
    TITLE "0:"
    INDEX 01 00:07:15
  TRACK 05 AUDIO
    TITLE "2:cjc151_3517"
    INDEX 01 00:08:70
  TRACK 06 AUDIO
    TITLE "0:"
    INDEX 01 00:09:65
  TRACK 07 AUDIO
    TITLE "3:cjc151_3518"
    INDEX 01 00:11:39
  TRACK 08 AUDIO
    TITLE "0:"
    INDEX 01 00:14:72
  TRACK 09 AUDIO
    TITLE "2:cjc151_3519"
    INDEX 01 00:16:49
  TRACK 10 AUDIO
    TITLE "0:"
    INDEX 01 00:17:55
  TRACK 11 AUDIO
    TITLE "3:cjc151_3520"
    INDEX 01 00:19:30
  TRACK 12 AUDIO
    TITLE "0:"
    INDEX 01 00:23:20
  TRACK 13 AUDIO
    TITLE "2:cjc151_3521"
    INDEX 01 00:25:01
  TRACK 14 AUDIO
    TITLE "0:"
    INDEX 01 00:25:70
  TRACK 15 AUDIO
    TITLE "3:cjc151_3522"
    INDEX 01 00:27:47
  TRACK 16 AUDIO
    TITLE "0:"
    INDEX 01 00:31:24
  TRACK 17 AUDIO
    TITLE "2:cjc151_3523"
    INDEX 01 00:33:03
  TRACK 18 AUDIO
    TITLE "0:"
    INDEX 01 00:34:16
  TRACK 19 AUDIO
    TITLE "3:cjc151_3524"
    INDEX 01 00:35:70
  TRACK 20 AUDIO
    TITLE "0:"
    INDEX 01 00:39:51
  TRACK 21 AUDIO
    TITLE "2:cjc151_3525"
    INDEX 01 00:41:28
  TRACK 22 AUDIO
    TITLE "0:"
    INDEX 01 00:42:19
  TRACK 23 AUDIO
    TITLE "3:cjc151_3526"
    INDEX 01 00:43:74
  TRACK 24 AUDIO
    TITLE "0:"
    INDEX 01 00:48:06
  TRACK 25 AUDIO
    TITLE "2:cjc151_3527"
    INDEX 01 00:49:63
  TRACK 26 AUDIO
    TITLE "0:"
    INDEX 01 00:50:54
  TRACK 27 AUDIO
    TITLE "3:cjc151_3528"
    INDEX 01 00:52:32
  TRACK 28 AUDIO
    TITLE "0:"
    INDEX 01 00:56:69
  TRACK 29 AUDIO
    TITLE "2:cjc151_3529"
    INDEX 01 00:58:48
  TRACK 30 AUDIO
    TITLE "0:"
    INDEX 01 01:00:00
  TRACK 31 AUDIO
    TITLE "3:cjc151_3530"
    INDEX 01 01:01:60
  TRACK 32 AUDIO
    TITLE "0:"
    INDEX 01 01:06:55
  TRACK 33 AUDIO
    TITLE "2:cjc151_3531"
    INDEX 01 01:08:35
  TRACK 34 AUDIO
    TITLE "0:"
    INDEX 01 01:09:57
  TRACK 35 AUDIO
    TITLE "3:cjc151_3532"
    INDEX 01 01:11:37
  TRACK 36 AUDIO
    TITLE "0:"
    INDEX 01 01:15:11
  TRACK 37 AUDIO
    TITLE "2:cjc151_3533"
    INDEX 01 01:16:65
  TRACK 38 AUDIO
    TITLE "0:"
    INDEX 01 01:18:02
  TRACK 39 AUDIO
    TITLE "3:cjc151_3534"
    INDEX 01 01:19:54
  TRACK 40 AUDIO
    TITLE "0:"
    INDEX 01 01:22:41
  TRACK 41 AUDIO
    TITLE "2:cjc151_3535"
    INDEX 01 01:24:37
  TRACK 42 AUDIO
    TITLE "0:"
    INDEX 01 01:25:53
  TRACK 43 AUDIO
    TITLE "3:cjc151_3536"
    INDEX 01 01:27:38
  TRACK 44 AUDIO
    TITLE "0:"
    INDEX 01 01:31:43
  TRACK 45 AUDIO
    TITLE "2:cjc151_3537"
    INDEX 01 01:33:23
  TRACK 46 AUDIO
    TITLE "0:"
    INDEX 01 01:34:30
  TRACK 47 AUDIO
    TITLE "3:cjc151_3538"
    INDEX 01 01:36:07
  TRACK 48 AUDIO
    TITLE "0:"
    INDEX 01 01:40:15
  TRACK 49 AUDIO
    TITLE "2:cjc151_3539"
    INDEX 01 01:41:69
  TRACK 50 AUDIO
    TITLE "0:"
    INDEX 01 01:43:05
  TRACK 51 AUDIO
    TITLE "3:cjc151_3540"
    INDEX 01 01:44:60
  TRACK 52 AUDIO
    TITLE "0:"
    INDEX 01 01:48:52
  TRACK 53 AUDIO
    TITLE "2:cjc151_3541"
    INDEX 01 01:50:29
  TRACK 54 AUDIO
    TITLE "0:"
    INDEX 01 01:51:28
  TRACK 55 AUDIO
    TITLE "3:cjc151_3542"
    INDEX 01 01:53:08
  TRACK 56 AUDIO
    TITLE "0:"
    INDEX 01 01:57:31
  TRACK 57 AUDIO
    TITLE "2:cjc151_3543"
    INDEX 01 01:59:18
  TRACK 58 AUDIO
    TITLE "0:"
    INDEX 01 02:00:57
  TRACK 59 AUDIO
    TITLE "3:cjc151_3544"
    INDEX 01 02:02:32
  TRACK 60 AUDIO
    TITLE "0:"
    INDEX 01 02:05:54
  TRACK 61 AUDIO
    TITLE "2:cjc151_3545"
    INDEX 01 02:07:31
  TRACK 62 AUDIO
    TITLE "0:"
    INDEX 01 02:08:29
  TRACK 63 AUDIO
    TITLE "3:cjc151_3546"
    INDEX 01 02:10:08
  TRACK 64 AUDIO
    TITLE "0:"
    INDEX 01 02:13:38
  TRACK 65 AUDIO
    TITLE "2:cjc151_3547"
    INDEX 01 02:15:17
  TRACK 66 AUDIO
    TITLE "0:"
    INDEX 01 02:16:11
  TRACK 67 AUDIO
    TITLE "3:cjc151_3548"
    INDEX 01 02:17:67
  TRACK 68 AUDIO
    TITLE "0:"
    INDEX 01 02:22:21
  TRACK 69 AUDIO
    TITLE "2:cjc151_3549"
    INDEX 01 02:24:10
  TRACK 70 AUDIO
    TITLE "0:"
    INDEX 01 02:25:20
  TRACK 71 AUDIO
    TITLE "3:cjc151_3550"
    INDEX 01 02:26:74
  TRACK 72 AUDIO
    TITLE "0:"
    INDEX 01 02:29:39
  TRACK 73 AUDIO
    TITLE "2:cjc151_3551"
    INDEX 01 02:31:22
  TRACK 74 AUDIO
    TITLE "0:"
    INDEX 01 02:32:16
  TRACK 75 AUDIO
    TITLE "3:cjc151_3552"
    INDEX 01 02:33:74
  TRACK 76 AUDIO
    TITLE "0:"
    INDEX 01 02:37:62
  TRACK 77 AUDIO
    TITLE "2:cjc151_3553"
    INDEX 01 02:39:39
  TRACK 78 AUDIO
    TITLE "0:"
    INDEX 01 02:40:35
  TRACK 79 AUDIO
    TITLE "3:cjc151_3554"
    INDEX 01 02:42:12
  TRACK 80 AUDIO
    TITLE "0:"
    INDEX 01 02:46:59
  TRACK 81 AUDIO
    TITLE "2:cjc151_3555"
    INDEX 01 02:48:38
  TRACK 82 AUDIO
    TITLE "0:"
    INDEX 01 02:49:57
  TRACK 83 AUDIO
    TITLE "3:cjc151_3556"
    INDEX 01 02:51:62
  TRACK 84 AUDIO
    TITLE "0:"
    INDEX 01 02:55:60
  TRACK 85 AUDIO
    TITLE "2:cjc151_3557"
    INDEX 01 02:57:37
  TRACK 86 AUDIO
    TITLE "0:"
    INDEX 01 02:58:31
  TRACK 87 AUDIO
    TITLE "3:cjc151_3558"
    INDEX 01 03:00:06
  TRACK 88 AUDIO
    TITLE "0:"
    INDEX 01 03:03:44
